<svg xmlns="http://www.w3.org/2000/svg" viewBox="0 0 512 512"> <polygon fill="black" points="256,0 300,0 336,18 360,42 380,76 396,118 408,166 414,220 416,256 414,292 408,346 396,394 380,436 360,470 336,494 300,512 256,512 212,494 188,470 168,436 154,394 142,346 136,292 134,256 136,220 142,166 154,118 168,76 188,42 212,18 " /> <path fill="#1fdf64" d="M0 256a256 256 0 1 1 512 0A256 256 0 1 1 0 256zM188.3 147.1c-7.6 4.2-12.3 12.3-12.3 20.9l0 176c0 8.7 4.7 16.7 12.3 20.9s16.8 4.1 24.3-.5l144-88c7.1-4.4 11.5-12.1 11.5-20.5s-4.4-16.1-11.5-20.5l-144-88c-7.4-4.5-16.7-4.7-24.3-.5z" fill="green"/></svg>